# AST/ASF file generated using VICON BodyLanguage
# -----------------------------------------------
:version 1.10
:name VICON
:units
  mass 1.0
  length 0.45
  angle deg
:documentation
   .ast/.asf automatically generated from VICON data using
   VICON BodyBuilder and BodyLanguage model FoxedUp or BRILLIANT.MOD
:root
   order TX TY TZ RX RY RZ
   axis XYZ
   position 0 0 0  
   orientation 0 0 0 
:bonedata
  begin
     id 1 
     name lhipjoint
     direction 0.560651 -0.75055 0.34978 
     length 2.44936 
     axis 0 0 0  XYZ
  end
  begin
     id 2 
     name lfemur
     direction 0.34202 -0.939693 0  
     length 7.42139  
     axis 0 0 20  XYZ
    dof rx ry rz
    limits (-160.0 20.0)
           (-70.0 70.0)
           (-60.0 70.0)
  end
  begin
     id 3 
     name ltibia
     direction 0.34202 -0.939693 0   
     length 7.75674   
     axis 0 0 20   XYZ
    dof rx
    limits (-10.0 170.0)
  end
  begin
     id 4 
     name lfoot
     direction 0.0925879 -0.254383 0.962661   
     length 2.38688   
     axis -90 7.62852e-016 20   XYZ
    dof rx rz
    limits (-45.0 90.0)
           (-70.0 20.0)
  end
  begin
     id 5 
     name ltoes
     direction 1.53567e-011 -4.21973e-011 1   
     length 1.19228   
     axis -90 7.62852e-016 20   XYZ
    dof rx
    limits (-90.0 20.0)
  end
  begin
     id 6 
     name rhipjoint
     direction -0.540087 -0.762838 0.355506   
     length 2.4099  
     axis 0 0 0  XYZ 
  end
  begin
     id 7 
     name rfemur
     direction -0.34202 -0.939693 0   
     length 7.70794   
     axis 0 0 -20   XYZ
    dof rx ry rz
    limits (-160.0 20.0)
           (-70.0 70.0)
           (-70.0 60.0)
  end
  begin
     id 8 
     name rtibia
     direction -0.34202 -0.939693 0   
     length 7.66106   
     axis 0 0 -20   XYZ
    dof rx
    limits (-10.0 170.0)
 end
 begin
     id 9 
     name rfoot
     direction -0.0830975 -0.228308 0.970036   
     length 2.4989  
     axis -90 -7.62852e-016 -20   XYZ
    dof rx rz
    limits (-45.0 90.0)
           (-20.0 70.0)
  end
  begin
     id 10 
     name rtoes
     direction -1.53517e-011 -4.21842e-011 1   
     length 1.2498   
     axis -90 -7.62852e-016 -20   XYZ
    dof rx
    limits (-90.0 20.0)
  end
  begin
     id 11 
     name lowerback
     direction 0.0266356 0.99402 -0.105896   
     length 2.1545   
     axis 0 0 0   XYZ
    dof rx ry rz
    limits (-20.0 45.0)
           (-30.0 30.0)
           (-30.0 30.0)
  end
  begin
     id 12 
     name upperback
     direction 0.0130547 0.999192 0.0380027   
     length 2.1434   
     axis 0 0 0   XYZ
    dof rx ry rz
    limits (-20.0 45.0)
           (-30.0 30.0)
           (-30.0 30.0)
  end
  begin
     id 13 
     name thorax
     direction 0.000590299 0.996288 0.0860764   
     length 2.19049   
     axis 0 0 0   XYZ
    dof rx ry rz
    limits (-20.0 45.0)
           (-30.0 30.0)
           (-30.0 30.0)
  end
  begin
     id 14 
     name lowerneck
     direction -0.0432125 0.978219 0.203028   
     length 1.62441   
     axis 0 0 0   XYZ
    dof rx ry rz
    limits (-20.0 45.0)
           (-30.0 30.0)
           (-30.0 30.0)
  end
  begin
     id 15 
     name upperneck
     direction -0.0192309 0.991699 -0.127138   
     length 1.66666   
     axis 0 0 0   XYZ
    dof rx ry rz
    limits (-20.0 45.0)
           (-30.0 30.0)
           (-30.0 30.0)
  end
  begin
     id 16
     name head
     direction -0.00434499 0.997882 -0.0649107  
     length 1.67142  
     axis 0 0 0   XYZ
    dof rx ry rz
    limits (-20.0 45.0)
           (-30.0 30.0)
           (-30.0 30.0)
  end
  begin
     id 17 
     name lclavicle
     direction 0.970351 0.240904 -0.0196058  
     length 4.04862  
     axis 0 0 0   XYZ
    dof ry rz
    limits (-20.0 10.0)
           (0.0 20.0)
  end
  begin
     id 18 
     name lhumerus
     direction 1 -4.4896e-011 -1.40911e-018   
     length 5.58345   
     axis 180 -30 -90   XYZ
    dof rx ry rz
    limits (-60.0 90.0)
           (-90.0 90.0)
           (-90.0 90.0)
  end
  begin
     id 19
     name lradius
     direction 1 -4.48968e-011 5.88912e-028   
     length 3.71087   
     axis 180 -30 -90   XYZ
    dof rx
    limits (-10.0 170.0)
  end
  begin
     id 20
     name lwrist
     direction 1 -4.48955e-011 -8.83775e-028   
     length 1.85544   
     axis 5.52448e-016 90 90   XYZ
    dof ry
    limits (-180.0 0.0)
 end
  begin
     id 21 
     name lhand
     direction 1 -4.49035e-011 -1.76755e-027   
     length 0.562322   
     axis 1.12785e-015 90 90   XYZ
    dof rx rz
    limits (-90.0 90.0)
           (-45.0 45.0)
  end
  begin
     id 22 
     name lfingers
     direction 1 -4.48824e-011 -3.5351e-027   
     length 0.453359   
     axis 2.2557e-015 90 90   XYZ
    dof rx
    limits (0.0 90.0)
  end
  begin
     id 23
     name lthumb
     direction 0.707107 -6.34888e-011 0.707107   
     length 0.650935   
     axis -90 45 2.85299e-015   XYZ
    dof rx rz
    limits (-45.0 45.0)
           (-45.0 45.0)
  end
  begin
     id 24 
     name rclavicle
     direction -0.96165 0.268562 -0.0557131   
     length 4.05446  
     axis 0 0 0   XYZ 
    dof ry rz
    limits (-10.0 20.0)
           (-20.0 0.0)
  end
  begin
     id 25 
     name rhumerus
     direction -1 -4.48957e-011 -3.36329e-027  
     length 5.20357   
     axis 180 30 90   XYZ
    dof rx ry rz
    limits (-90.0 60.0)
           (-90.0 90.0)
           (-90.0 90.0)
  end
  begin
     id 26 
     name rradius
     direction -1 -4.48974e-011 4.51441e-027   
     length 3.64937   
     axis 180 30 90   XYZ
    dof rx
    limits (-10.0 170.0)
  end
  begin
     id 27 
     name rwrist
     direction -1 -4.4896e-011 -8.83775e-028   
     length 1.82468   
     axis 5.52448e-016 -90 -90   XYZ
    dof ry
    limits (-180.0 0.0)
  end
  begin
     id 28
     name rhand
     direction -1 -4.48996e-011 -1.76755e-027   
     length 0.617996   
     axis 1.12785e-015 -90 -90   XYZ
    dof rx rz
    limits (-90.0 90.0)
           (-45.0 45.0)
  end
  begin
     id 29
     name rfingers
     direction -1 -4.48957e-011 -3.5351e-027   
     length 0.498244   
     axis 2.2557e-015 -90 -90   XYZ
    dof rx
    limits (0.0 90.0)
  end
  begin
     id 30
     name rthumb
     direction -0.707107 -6.34931e-011 0.707107   
     length 0.715382   
     axis -90 -45 -2.85299e-015   XYZ
    dof rx rz
    limits (-45.0 45.0)
           (-45.0 45.0)
  end
:hierarchy
  begin
    root lhipjoint rhipjoint lowerback
    lhipjoint lfemur
    lfemur ltibia
    ltibia lfoot
    lfoot ltoes
    rhipjoint rfemur
    rfemur rtibia
    rtibia rfoot
    rfoot rtoes
    lowerback upperback
    upperback thorax
    thorax lowerneck lclavicle rclavicle
    lowerneck upperneck
    upperneck head
    lclavicle lhumerus
    lhumerus lradius
    lradius lwrist
    lwrist lhand lthumb
    lhand lfingers
    rclavicle rhumerus
    rhumerus rradius
    rradius rwrist
    rwrist rhand rthumb
    rhand rfingers
  end

#!OML:ASF H:\ManfredETheater\Project 1\Capture day 2\Session 1\Male1.ASF
:FULLY-SPECIFIED
:DEGREES
268
root 3.32041 17.088 19.5196 13.0212 -0.375745 -1.28719
lowerback 6.41679 -0.00316418 1.24578
upperback -3.55901 0.26752 2.23303
thorax -7.34265 0.131822 1.6104
lowerneck -25.4957 1.1683 0.483846
upperneck 19.9526 2.72732 -4.96804
head 10.7121 0.63296 -1.43673
rclavicle -2.08724e-015 -1.59028e-014
rhumerus -31.469 -0.794511 -87.9084
rradius 38.7577
rwrist 1.30676
rhand -27.5174 -10.0453
rfingers 7.12502
rthumb -0.91977 -40.0231
lclavicle -2.08724e-015 -1.59028e-014
lhumerus -39.6668 -6.20644 92.9255
lradius 46.4335
lwrist -0.734499
lhand -7.94217 8.72384
lfingers 7.12502
lthumb 17.9645 37.9142
rfemur -13.5564 -1.61866 19.0508
rtibia 45.5755
rfoot -30.1958 -2.4092
rtoes -19.955
lfemur -6.3173 -3.99067 -22.7401
ltibia 29.7727
lfoot -31.1796 2.18042
ltoes 9.36782
269
root 3.32913 17.0589 19.611 13.2467 -0.321953 -1.06268
lowerback 6.59344 -0.0469609 1.06166
upperback -3.52893 0.188263 2.1374
thorax -7.41112 0.0993562 1.62413
lowerneck -25.5586 1.18554 0.485501
upperneck 19.8779 2.72613 -4.88728
head 10.6939 0.643474 -1.40718
rclavicle 5.66536e-015 -8.74653e-015
rhumerus -31.6275 -0.845019 -87.8542
rradius 39.1452
rwrist 1.12452
rhand -27.5913 -9.6919
rfingers 7.12502
rthumb -0.991215 -39.6693
lclavicle 5.66536e-015 -8.74653e-015
lhumerus -39.4673 -6.53215 92.9601
lradius 46.8188
lwrist -0.454556
lhand -8.13261 8.52768
lfingers 7.12502
lthumb 17.7812 37.7347
rfemur -14.4758 -1.7843 18.7639
rtibia 47.5576
rfoot -29.8369 -2.27292
rtoes -21.1912
lfemur -6.07436 -3.91566 -22.9983
ltibia 29.493
lfoot -31.374 2.07899
ltoes 9.23001
270
root 3.33688 17.0283 19.7052 13.493 -0.241136 -0.832251
lowerback 6.79495 -0.122492 0.857419
upperback -3.58345 0.0665909 2.04936
thorax -7.58363 0.0477666 1.66437
lowerneck -25.3636 1.24215 0.567013
upperneck 19.7305 2.76335 -4.88315
head 10.6067 0.67288 -1.41123
rclavicle 3.18055e-015 -2.18663e-014
rhumerus -31.9726 -0.902717 -87.7874
rradius 39.5276
rwrist 0.933029
rhand -27.71 -9.43336
rfingers 7.12502
rthumb -1.10584 -39.4102
lclavicle 3.18055e-015 -2.18663e-014
lhumerus -39.4586 -6.82529 93.017
lradius 47.2397
lwrist -0.0162524
lhand -8.43628 8.20201
lfingers 7.12502
lthumb 17.489 37.4353
rfemur -15.4821 -2.03719 18.4843
rtibia 49.6769
rfoot -29.3008 -2.13035
rtoes -22.5071
lfemur -5.81973 -3.78166 -23.2412
ltibia 29.1668
lfoot -31.5478 1.92658
ltoes 8.97184
271
root 3.3417 16.9997 19.8011 13.7418 -0.194644 -0.560363
lowerback 7.02553 -0.164269 0.586836
upperback -3.55576 -0.0204377 1.94412
thorax -7.68538 0.016081 1.719
lowerneck -25.4822 1.25622 0.608348
upperneck 19.6481 2.75497 -4.84894
head 10.597 0.676445 -1.40635
rclavicle 5.26779e-015 -1.63003e-014
rhumerus -32.1561 -1.12229 -87.6573
rradius 39.8671
rwrist 0.826576
rhand -27.7648 -9.20654
rfingers 7.12502
rthumb -1.15874 -39.1831
lclavicle 5.26779e-015 -1.63003e-014
lhumerus -39.2864 -7.16034 93.0354
lradius 47.7326
lwrist 0.310396
lhand -8.53347 8.15868
lfingers 7.12502
lthumb 17.3955 37.4003
rfemur -16.6093 -2.2393 18.1694
rtibia 51.9191
rfoot -28.5349 -1.98379
rtoes -23.24
lfemur -5.55513 -3.65766 -23.52
ltibia 28.7986
lfoot -31.7031 1.75011
ltoes 8.74789
272
root 3.34833 16.9724 19.8989 14.0253 -0.134939 -0.263178
lowerback 7.20371 -0.225069 0.310441
upperback -3.53136 -0.13555 1.84404
thorax -7.75906 -0.0288159 1.78621
lowerneck -25.5583 1.27301 0.595817
upperneck 19.5555 2.76014 -4.77696
head 10.575 0.687625 -1.3766
rclavicle -1.68967e-015 -7.15625e-015
rhumerus -32.3514 -1.34443 -87.487
rradius 40.142
rwrist 0.769703
rhand -27.7521 -9.03473
rfingers 7.12502
rthumb -1.14649 -39.0114
lclavicle -1.68967e-015 -7.15625e-015
lhumerus -39.0451 -7.44751 93.0466
lradius 48.203
lwrist 0.598822
lhand -8.68499 7.97134
lfingers 7.12502
lthumb 17.2496 37.2258
rfemur -17.8753 -2.54337 17.8134
rtibia 54.2629
rfoot -27.5741 -1.6159
rtoes -22.8124
lfemur -5.28768 -3.54335 -23.8237
ltibia 28.3736
lfoot -31.8248 1.53979
ltoes 8.685
273
root 3.35455 16.9428 20.0003 14.2753 -0.0663632 0.00916985
lowerback 7.4882 -0.297911 0.0708258
upperback -3.548 -0.263337 1.73085
thorax -7.93798 -0.0812119 1.82303
lowerneck -25.5877 1.32078 0.68923
upperneck 19.4748 2.783 -4.76143
head 10.552 0.708308 -1.38184
rclavicle 2.28602e-015 7.15625e-015
rhumerus -32.6695 -1.64235 -87.3209
rradius 40.4035
rwrist 0.621748
rhand -27.8553 -8.94949
rfingers 7.12502
rthumb -1.24619 -38.9256
lclavicle 2.28602e-015 7.15625e-015
lhumerus -38.9124 -7.70594 93.0358
lradius 48.7467
lwrist 0.809498
lhand -8.70599 8.02973
lfingers 7.12502
lthumb 17.2294 37.2859
rfemur -19.1601 -2.9007 17.4958
rtibia 56.6973
rfoot -26.3663 -1.48573
rtoes -22.4074
lfemur -4.94604 -3.41597 -24.0998
ltibia 27.9098
lfoot -31.9433 1.34831
ltoes 8.40376
